{
    "asset" : {
        "copyright" : "Ricardo Sousa",
        "generator" : "Khronos glTF Blender I/O v1.0.5",
        "version" : "2.0"
    },
    "scene" : 0,
    "scenes" : [
        {
            "name" : "Scene",
            "nodes" : [
                0,
                1,
                2,
                3,
                4
            ]
        }
    ],
    "nodes" : [
        {
            "mesh" : 0,
            "name" : "World"
        },
        {
            "name" : "Camera",
            "rotation" : [
                0.4529956579208374,
                -0.5053255558013916,
                0.3564682900905609,
                0.6421615481376648
            ],
            "translation" : [
                -26.88749122619629,
                9.86987590789795,
                6.6726250648498535
            ]
        },
        {
            "name" : "Point.001",
            "translation" : [
                -7.100839614868164,
                -24.432798385620117,
                1.2540898323059082
            ]
        },
        {
            "name" : "Point",
            "translation" : [
                2.4994583129882812,
                11.153660774230957,
                9.819379806518555
            ]
        },
        {
            "name" : "Sun",
            "translation" : [
                13.980076789855957,
                1.0836262702941895,
                5.3888139724731445
            ]
        }
    ],
    "materials" : [
        {
            "doubleSided" : true,
            "name" : "Dirt",
            "pbrMetallicRoughness" : {}
        },
        {
            "doubleSided" : true,
            "name" : "Water",
            "pbrMetallicRoughness" : {}
        },
        {
            "doubleSided" : true,
            "name" : "Grass",
            "pbrMetallicRoughness" : {}
        },
        {
            "doubleSided" : true,
            "name" : "Mountains",
            "pbrMetallicRoughness" : {}
        }
    ],
    "meshes" : [
        {
            "name" : "Icosphere.003",
            "primitives" : [
                {
                    "attributes" : {
                        "POSITION" : 0,
                        "NORMAL" : 1,
                        "TEXCOORD_0" : 2
                    },
                    "indices" : 3,
                    "material" : 0
                },
                {
                    "attributes" : {
                        "POSITION" : 4,
                        "NORMAL" : 5,
                        "TEXCOORD_0" : 6
                    },
                    "indices" : 7,
                    "material" : 1
                },
                {
                    "attributes" : {
                        "POSITION" : 8,
                        "NORMAL" : 9,
                        "TEXCOORD_0" : 10
                    },
                    "indices" : 11,
                    "material" : 2
                },
                {
                    "attributes" : {
                        "POSITION" : 12,
                        "NORMAL" : 13,
                        "TEXCOORD_0" : 14
                    },
                    "indices" : 15,
                    "material" : 3
                }
            ]
        }
    ],
    "accessors" : [
        {
            "bufferView" : 0,
            "componentType" : 5126,
            "count" : 589,
            "max" : [
                4.999999523162842,
                4.964325428009033,
                4.536355972290039
            ],
            "min" : [
                -4.303487777709961,
                -4.839748859405518,
                -4.445977687835693
            ],
            "type" : "VEC3"
        },
        {
            "bufferView" : 1,
            "componentType" : 5126,
            "count" : 589,
            "type" : "VEC3"
        },
        {
            "bufferView" : 2,
            "componentType" : 5126,
            "count" : 589,
            "type" : "VEC2"
        },
        {
            "bufferView" : 3,
            "componentType" : 5123,
            "count" : 885,
            "type" : "SCALAR"
        },
        {
            "bufferView" : 4,
            "componentType" : 5126,
            "count" : 984,
            "max" : [
                4.85305643081665,
                4.86226224899292,
                4.336087226867676
            ],
            "min" : [
                -4.110051155090332,
                -4.6613993644714355,
                -4.245367527008057
            ],
            "type" : "VEC3"
        },
        {
            "bufferView" : 5,
            "componentType" : 5126,
            "count" : 984,
            "type" : "VEC3"
        },
        {
            "bufferView" : 6,
            "componentType" : 5126,
            "count" : 984,
            "type" : "VEC2"
        },
        {
            "bufferView" : 7,
            "componentType" : 5123,
            "count" : 984,
            "type" : "SCALAR"
        },
        {
            "bufferView" : 8,
            "componentType" : 5126,
            "count" : 2275,
            "max" : [
                4.999999523162842,
                4.964325428009033,
                4.9415106773376465
            ],
            "min" : [
                -4.935296535491943,
                -5,
                -5.0854058265686035
            ],
            "type" : "VEC3"
        },
        {
            "bufferView" : 9,
            "componentType" : 5126,
            "count" : 2275,
            "type" : "VEC3"
        },
        {
            "bufferView" : 10,
            "componentType" : 5126,
            "count" : 2275,
            "type" : "VEC2"
        },
        {
            "bufferView" : 11,
            "componentType" : 5123,
            "count" : 2607,
            "type" : "SCALAR"
        },
        {
            "bufferView" : 12,
            "componentType" : 5126,
            "count" : 820,
            "max" : [
                5.020785808563232,
                4.105109214782715,
                5.207292556762695
            ],
            "min" : [
                -5.463057518005371,
                -4.940128326416016,
                -5.118149757385254
            ],
            "type" : "VEC3"
        },
        {
            "bufferView" : 13,
            "componentType" : 5126,
            "count" : 820,
            "type" : "VEC3"
        },
        {
            "bufferView" : 14,
            "componentType" : 5126,
            "count" : 820,
            "type" : "VEC2"
        },
        {
            "bufferView" : 15,
            "componentType" : 5123,
            "count" : 834,
            "type" : "SCALAR"
        }
    ],
    "bufferViews" : [
        {
            "buffer" : 0,
            "byteLength" : 7068,
            "byteOffset" : 0
        },
        {
            "buffer" : 0,
            "byteLength" : 7068,
            "byteOffset" : 7068
        },
        {
            "buffer" : 0,
            "byteLength" : 4712,
            "byteOffset" : 14136
        },
        {
            "buffer" : 0,
            "byteLength" : 1770,
            "byteOffset" : 18848
        },
        {
            "buffer" : 0,
            "byteLength" : 11808,
            "byteOffset" : 20620
        },
        {
            "buffer" : 0,
            "byteLength" : 11808,
            "byteOffset" : 32428
        },
        {
            "buffer" : 0,
            "byteLength" : 7872,
            "byteOffset" : 44236
        },
        {
            "buffer" : 0,
            "byteLength" : 1968,
            "byteOffset" : 52108
        },
        {
            "buffer" : 0,
            "byteLength" : 27300,
            "byteOffset" : 54076
        },
        {
            "buffer" : 0,
            "byteLength" : 27300,
            "byteOffset" : 81376
        },
        {
            "buffer" : 0,
            "byteLength" : 18200,
            "byteOffset" : 108676
        },
        {
            "buffer" : 0,
            "byteLength" : 5214,
            "byteOffset" : 126876
        },
        {
            "buffer" : 0,
            "byteLength" : 9840,
            "byteOffset" : 132092
        },
        {
            "buffer" : 0,
            "byteLength" : 9840,
            "byteOffset" : 141932
        },
        {
            "buffer" : 0,
            "byteLength" : 6560,
            "byteOffset" : 151772
        },
        {
            "buffer" : 0,
            "byteLength" : 1668,
            "byteOffset" : 158332
        }
    ],
    "buffers" : [
        {
            "byteLength" : 160000,
            "uri" : "data:application/octet-stream;base64,"
        }
    ]
}
